<svg width="1016" height="334" viewBox="0 0 1016 334" fill="none" xmlns="http://www.w3.org/2000/svg">
<path d="M553.34 68.5691L582.698 145.555H567.85L561.806 129.591L561.684 129.267H529.301L529.178 129.59L523.105 145.555H508.135L537.603 68.5691H553.34ZM545.058 87.8347L534.613 115.277L534.355 115.955H556.634L556.378 115.278L545.992 87.8357L545.526 86.6033L545.058 87.8347Z" stroke="#313131"/>
<path d="M722.609 90.7825C729.77 90.7825 736.65 93.5381 741.826 98.4631L742.321 98.9465C747.547 104.174 750.484 111.264 750.484 118.657C750.484 123.998 748.951 129.223 746.069 133.711L745.786 134.144C742.724 138.728 738.369 142.301 733.277 144.41C728.183 146.52 722.578 147.072 717.17 145.996C711.762 144.921 706.796 142.266 702.898 138.367H702.897C698.998 134.469 696.344 129.502 695.268 124.095C694.194 118.688 694.744 113.084 696.855 107.99V107.99C698.964 102.897 702.536 98.5434 707.12 95.4807C711.704 92.4177 717.095 90.7825 722.609 90.7825ZM728.091 105.429C725.473 104.345 722.593 104.061 719.814 104.614C717.209 105.132 714.804 106.363 712.862 108.165L712.48 108.533C710.477 110.536 709.113 113.088 708.562 115.866C708.007 118.645 708.29 121.525 709.375 124.142C710.46 126.759 712.296 128.996 714.652 130.57C717.006 132.143 719.775 132.982 722.608 132.983L722.609 132.984V132.983C724.491 132.985 726.355 132.618 728.093 131.9C729.832 131.181 731.414 130.126 732.743 128.795C734.075 127.464 735.129 125.884 735.849 124.146V124.145C736.566 122.406 736.935 120.542 736.931 118.659C736.93 115.827 736.091 113.059 734.52 110.704V110.703C732.945 108.348 730.706 106.513 728.091 105.429Z" stroke="#313131"/>
<path d="M589.233 91.7664L602.069 126.118L602.538 127.371L603.006 126.118L615.843 91.7664H630.076L609.967 145.555H595.479L575.005 91.7664H589.233Z" stroke="#313131"/>
<path d="M678.423 77.2068V91.7664H691.506V103.848H678.423V124.358C678.423 127.407 679.257 129.483 680.764 130.782C682.255 132.068 684.311 132.508 686.572 132.509L686.579 132.508C688.254 132.486 689.914 132.214 691.506 131.703V144.237C688.455 145.478 685.187 146.097 681.893 146.05H681.886C676.854 146.05 672.616 144.656 669.636 141.706C666.657 138.757 664.863 134.182 664.863 127.671V103.848H656.35V91.7664H664.863V77.2068H678.423Z" stroke="#313131"/>
<path d="M642.767 66.594C648.352 66.5942 652.88 71.1223 652.88 76.7073C652.88 82.2921 648.352 86.8194 642.767 86.8196C637.181 86.8196 632.653 82.2922 632.652 76.7073C632.652 71.1221 637.181 66.594 642.767 66.594Z" stroke="#313131"/>
<path d="M649.548 91.7664V145.555H635.988V91.7664H649.548Z" stroke="#313131"/>
<path d="M425.478 97.5669C440.877 97.5669 453.361 110.05 453.361 125.449C453.361 140.847 440.877 153.332 425.478 153.332C410.078 153.332 397.594 140.847 397.594 125.449C397.594 110.05 410.078 97.5669 425.478 97.5669Z" stroke="#313131"/>
<path d="M474.716 116.449C483.912 116.449 491.367 123.903 491.367 133.099C491.367 142.295 483.912 149.749 474.716 149.75C465.52 149.75 458.065 142.295 458.064 133.099C458.064 123.903 465.52 116.449 474.716 116.449Z" stroke="#313131"/>
<path d="M430.906 72.6411C436.492 72.6411 441.021 77.1692 441.021 82.7544C441.02 88.3394 436.492 92.8667 430.906 92.8667C425.321 92.8666 420.793 88.3393 420.793 82.7544C420.793 77.1693 425.321 72.6412 430.906 72.6411Z" stroke="#313131"/>
<path d="M468.054 66.594C480.523 66.594 490.631 76.7019 490.631 89.1702C490.631 101.638 480.522 111.745 468.054 111.745C455.585 111.745 445.477 101.638 445.477 89.1702C445.477 76.7019 455.585 66.594 468.054 66.594Z" stroke="#313131"/>
<line x1="396.5" y1="2.18557e-08" x2="396.5" y2="334" stroke="#1B1B1B" stroke-dasharray="2 3"/>
<line x1="751.5" y1="2.18557e-08" x2="751.5" y2="334" stroke="#1B1B1B" stroke-dasharray="2 3"/>
<line x1="4.37114e-08" y1="154.5" x2="1016" y2="154.5" stroke="#1B1B1B" stroke-dasharray="2 3"/>
<line y1="65.5" x2="1016" y2="65.5" stroke="#1B1B1B" stroke-dasharray="2 3"/>
</svg>
