<svg width="203" height="53" viewBox="0 0 203 53" fill="none" xmlns="http://www.w3.org/2000/svg">
<path d="M26.5 0C37.2716 0 42.6576 -0.000279658 46.4961 2.6377C48.0106 3.6786 49.3214 4.98937 50.3623 6.50391C53.0003 10.3424 53 15.7284 53 26.5C53 37.2716 53.0003 42.6576 50.3623 46.4961C49.3214 48.0106 48.0106 49.3214 46.4961 50.3623C42.6576 53.0003 37.2716 53 26.5 53C15.7284 53 10.3424 53.0003 6.50391 50.3623C4.98937 49.3214 3.6786 48.0106 2.6377 46.4961C-0.000279658 42.6576 0 37.2716 0 26.5C0 15.7284 -0.00027988 10.3424 2.6377 6.50391C3.6786 4.98937 4.98937 3.6786 6.50391 2.6377C10.3424 -0.00027988 15.7284 0 26.5 0ZM151.497 50.3477L151.493 50.3438H151.498L151.497 50.3477ZM170.682 15.5557C172.341 15.5557 173.863 15.8765 175.246 16.5215C176.626 17.1665 177.741 18.2411 178.588 19.7461C179.434 21.255 179.856 23.2964 179.856 25.8691C179.856 26.9667 179.729 28.2076 179.472 29.5918C179.214 30.9725 178.797 32.3724 178.215 33.7832C177.633 35.1977 176.835 36.4952 175.828 37.6797C174.817 38.8642 173.576 39.8229 172.103 40.5547C170.626 41.2865 168.872 41.6484 166.84 41.6484C165.721 41.6484 164.598 41.4898 163.476 41.1768C162.349 40.8636 161.312 40.3129 160.365 39.5283C159.418 38.7437 158.665 37.6682 158.105 36.3027H157.919L154.753 50.3438H151.498L159.206 16.2646H161.861L161.324 20.7383H161.556C162.316 19.3427 163.405 18.1284 164.826 17.0986C166.247 16.0688 168.198 15.5557 170.682 15.5557ZM25.25 9V17.6777L19.1836 11.541L17.5127 13.2314L23.5781 19.3672H15V21.7578H23.5762L17.5107 27.8926L19.1816 29.582L25.25 23.4434V32.125H27.376L28.7178 33.4814V35.3945L27.3789 36.75H25.25V46H27.6133V37.3262L33.6768 43.46L35.3477 41.7705L29.2803 35.6328H37.8623V33.2422H29.2842L35.3496 27.1084L33.6787 25.418L27.6133 31.5527V22.875H25.4844L24.1455 21.5205V19.6035L25.4834 18.25H27.375L28.8818 19.7734L35.3486 13.2334L33.6777 11.543L27.6133 17.6768V9H25.25ZM78.0205 15.4424C79.2772 15.4424 80.4407 15.5476 81.5146 15.7588C82.5849 15.97 83.5365 16.3358 84.3682 16.8525C85.1998 17.3693 85.8862 18.0902 86.4307 19.0068C86.9752 19.9273 87.3409 21.0931 87.5273 22.5039L84.2188 22.6924C84.0024 21.342 83.5734 20.3494 82.9395 19.7119C82.3019 19.0747 81.53 18.6526 80.624 18.4414C79.7178 18.2302 78.718 18.124 77.6328 18.124C75.7681 18.124 74.3322 18.3544 73.3252 18.8184C72.3147 19.2823 71.6174 19.867 71.2295 20.5723C70.8416 21.2777 70.6475 22.0176 70.6475 22.7871C70.6475 24.1073 71.0501 25.0011 71.8594 25.4727C72.665 25.9442 73.6462 26.3141 74.7949 26.5781L79.6611 27.6875C80.6383 27.9063 81.5603 28.2225 82.4219 28.6299C83.2831 29.0372 83.9764 29.6523 84.5059 30.4668C85.0354 31.2816 85.2969 32.4137 85.2969 33.8584C85.2969 34.8467 85.1177 35.8087 84.7598 36.7441C84.4017 37.6797 83.816 38.5177 83.0029 39.2646C82.1862 40.0114 81.1006 40.6003 79.7432 41.0303C78.3857 41.4602 76.7037 41.6787 74.7012 41.6787H74.6934C73.142 41.6787 71.7546 41.5388 70.5352 41.2559C69.3157 40.9729 68.2637 40.5353 67.3799 39.9355C66.4962 39.3396 65.7842 38.574 65.251 37.6387C64.7139 36.7031 64.363 35.5708 64.1914 34.2354L67.5215 34.0703C67.708 35.4356 68.1709 36.4766 68.9092 37.1895C69.6476 37.9062 70.5693 38.3887 71.6807 38.6377C72.7919 38.8904 73.9738 39.0156 75.2305 39.0156C77.5764 39.0156 79.2959 38.5512 80.3887 37.627C81.4814 36.699 82.0303 35.5707 82.0303 34.2354C82.0302 33.3076 81.8511 32.5944 81.4932 32.0928C81.1351 31.5911 80.6723 31.2178 80.1055 30.9727C79.5386 30.7275 78.9451 30.5462 78.3223 30.418L73.3398 29.3359C72.6872 29.2115 72.0194 29.0191 71.3369 28.7588C70.6544 28.4985 70.0203 28.1471 69.4385 27.6982C68.8568 27.2494 68.383 26.6647 68.0176 25.9443C67.6521 25.2238 67.4697 24.318 67.4697 23.2354C67.4698 22.3414 67.626 21.4322 67.9355 20.5156C68.2451 19.5952 68.7897 18.7539 69.5654 17.9844C70.3412 17.2149 71.4116 16.5997 72.7803 16.1357C74.1453 15.6717 75.8947 15.4424 78.0205 15.4424ZM102.524 15.5635C104.154 15.5635 105.664 15.8273 107.052 16.3516C108.443 16.8797 109.596 17.7553 110.51 18.9775C111.427 20.2035 111.982 21.8596 112.188 23.9492L108.928 24.2314C108.696 22.5681 108.23 21.3231 107.529 20.4971C106.828 19.6711 106 19.1282 105.038 18.8604C104.076 18.5925 103.106 18.46 102.129 18.46C100.078 18.46 98.4072 18.8982 97.1094 19.7695C95.8116 20.6408 94.8156 21.7532 94.1182 23.1035C93.4207 24.454 92.9353 25.8469 92.6631 27.2842C92.3909 28.7212 92.2568 30.0042 92.2568 31.1357C92.2569 33.1461 92.6192 34.7035 93.3389 35.8125C94.0587 36.9216 94.9983 37.6883 96.1582 38.1221C97.3142 38.5558 98.5226 38.7705 99.7793 38.7705C101.767 38.7705 103.39 38.2879 104.646 37.3223C105.903 36.3566 106.892 34.9153 107.604 32.999L110.655 33.3271C110.267 34.6324 109.745 35.7982 109.096 36.8242C108.443 37.8539 107.656 38.7288 106.731 39.4492C105.807 40.1735 104.729 40.7204 103.494 41.0977C102.26 41.4749 100.857 41.6641 99.291 41.6641L99.2871 41.6562C97.4224 41.6562 95.6994 41.3169 94.1182 40.6455C92.5331 39.9703 91.2686 38.8758 90.3213 37.3594C89.3741 35.8429 88.9004 33.8362 88.9004 31.3428C88.9004 30.0564 89.0268 28.6941 89.2842 27.2568C89.5415 25.8197 89.9745 24.4126 90.5898 23.0283C91.2015 21.6477 92.0298 20.3914 93.0703 19.2598C94.1108 18.1282 95.4049 17.2301 96.96 16.5625C98.5114 15.8948 100.369 15.5635 102.524 15.5635ZM115.775 31.5723C115.339 33.4244 115.317 34.8657 115.705 35.8955C116.093 36.9253 116.738 37.6382 117.637 38.0381C118.535 38.4379 119.531 38.6386 120.616 38.6387C122.496 38.6387 124.085 38.189 125.391 37.2949C126.696 36.401 127.751 35.2622 128.557 33.8818C129.362 32.5012 129.937 31.0781 130.28 29.6182L133.286 16.2646H136.546L130.981 40.9512H128.303L128.862 36.4053H128.605C128.061 37.3632 127.39 38.2382 126.592 39.0303C125.794 39.8225 124.805 40.4604 123.634 40.9395C122.463 41.4185 121.053 41.6562 119.408 41.6562C118.446 41.6562 117.468 41.505 116.473 41.207C115.481 40.909 114.597 40.4073 113.829 39.6982C113.061 38.9928 112.524 38.0194 112.222 36.7783C111.92 35.5373 111.975 33.9758 112.396 32.0898L115.984 16.2607H119.244L115.775 31.5723ZM146.227 5.61914H146.697L140.271 33.9346C139.884 35.6619 139.913 36.8196 140.364 37.4082C140.816 37.9967 141.468 38.291 142.322 38.291L142.315 38.2871C143.542 38.287 144.896 37.8275 146.38 36.9111C147.864 35.9945 149.513 34.836 151.329 33.4365L153.008 35.6963C151.766 36.6695 150.512 37.5934 149.248 38.4648C147.984 39.3362 146.715 40.0459 145.451 40.5967C144.187 41.1473 142.942 41.4218 141.715 41.4219C140.488 41.4219 139.473 41.1623 138.63 40.6455C137.787 40.1287 137.205 39.31 136.896 38.1973C136.586 37.0807 136.631 35.6391 137.034 33.8623L142.782 8.41797H133.838L134.49 5.61523H146.228L146.227 5.61914ZM191.139 16.2646H202.409L201.779 19.0449H190.486L190.482 19.041L187.13 33.9043C186.88 35.051 186.854 35.9416 187.048 36.5791C187.242 37.2163 187.555 37.6575 187.991 37.9102C188.428 38.1629 188.901 38.2871 189.412 38.2871C190.296 38.2871 191.24 38.0766 192.243 37.6504C193.246 37.2241 194.328 36.6507 195.491 35.9189C196.655 35.1871 197.897 34.3606 199.217 33.4326L200.802 35.6924C199.437 36.6505 198.08 37.5676 196.737 38.4502C195.395 39.3291 194.067 40.0458 192.754 40.5928C191.441 41.1435 190.124 41.4189 188.808 41.4189C187.566 41.4189 186.503 41.1583 185.619 40.6416C184.735 40.1248 184.127 39.3061 183.803 38.1934C183.478 37.0768 183.509 35.624 183.896 33.8359L187.178 19.0449H180.028L180.659 16.2646H187.831L190.37 8.44434H192.884L191.139 16.2646ZM169.593 18.4521C167.747 18.4521 166.161 18.8675 164.841 19.7012C163.521 20.5348 162.447 21.6029 161.615 22.9043C160.784 24.2095 160.175 25.5973 159.787 27.0723C159.399 28.5472 159.206 29.9398 159.206 31.2412C159.206 32.8741 159.455 34.1866 159.951 35.1748C160.447 36.1632 161.093 36.9146 161.884 37.4238C162.674 37.933 163.499 38.2757 164.353 38.4492C165.207 38.6227 165.998 38.71 166.729 38.71C168.701 38.7099 170.324 38.2798 171.596 37.416C172.867 36.5522 173.859 35.4543 174.563 34.1191C175.268 32.7838 175.773 31.4032 176.067 29.9736C176.362 28.5439 176.511 27.2645 176.511 26.1328C176.511 24.0432 176.171 22.4479 175.496 21.3389C174.821 20.2336 173.956 19.4747 172.9 19.0635C171.845 18.6562 170.741 18.4522 169.593 18.4521Z" fill="white"/>
</svg>
