<svg width="203" height="53" viewBox="0 0 203 53" fill="none" xmlns="http://www.w3.org/2000/svg">
<path d="M74.6938 41.6786C73.1423 41.6786 71.7549 41.5391 70.5354 41.2561C69.3158 40.9732 68.2641 40.5356 67.3802 39.9358C66.4963 39.3398 65.7839 38.574 65.2506 37.6385C64.7135 36.703 64.363 35.5713 64.1914 34.2359L67.5219 34.0699C67.7084 35.4355 68.1708 36.4766 68.9093 37.1896C69.6477 37.9063 70.5689 38.3892 71.6803 38.6382C72.7917 38.8909 73.974 39.0154 75.2309 39.0154C77.5768 39.0154 79.2961 38.5514 80.3888 37.6272C81.4816 36.6992 82.0298 35.5713 82.0298 34.2359C82.0298 33.3079 81.8508 32.5949 81.4928 32.0932C81.1347 31.5915 80.6723 31.218 80.1054 30.9728C79.5385 30.7276 78.9455 30.5465 78.3227 30.4183L73.34 29.3356C72.6873 29.2111 72.0197 29.0187 71.3372 28.7584C70.6547 28.4981 70.0207 28.1473 69.4389 27.6984C68.8571 27.2495 68.3834 26.6648 68.0179 25.9443C67.6524 25.2238 67.4697 24.3184 67.4697 23.2358C67.4697 22.3417 67.6263 21.4326 67.9359 20.5159C68.2454 19.5955 68.7899 18.7542 69.5657 17.9847C70.3414 17.2151 71.4118 16.6002 72.7806 16.1362C74.1456 15.6722 75.8947 15.4421 78.0206 15.4421C79.2774 15.4421 80.4411 15.5478 81.5152 15.759C82.5855 15.9703 83.5366 16.3362 84.3683 16.853C85.2 17.3698 85.8862 18.0903 86.4307 19.007C86.9752 19.9274 87.3407 21.0931 87.5272 22.5039L84.2191 22.6925C84.0028 21.3421 83.5739 20.3499 82.9398 19.7124C82.3021 19.0749 81.5301 18.6524 80.6238 18.4411C79.7175 18.2299 78.718 18.1243 77.6327 18.1243C75.7679 18.1243 74.3321 18.3544 73.3251 18.8184C72.3144 19.2824 71.6169 19.8671 71.2291 20.5725C70.8412 21.2779 70.6473 22.0173 70.6473 22.7869C70.6473 24.1072 71.05 25.0012 71.8594 25.4727C72.6649 25.9443 73.6458 26.314 74.7945 26.578L79.6616 27.6871C80.6387 27.9059 81.5599 28.2228 82.4214 28.6302C83.283 29.0376 83.9767 29.6525 84.5063 30.4673C85.0359 31.2821 85.2969 32.4138 85.2969 33.8586C85.2969 34.847 85.1179 35.8089 84.7599 36.7444C84.4018 37.68 83.8163 38.5174 83.0033 39.2644C82.1865 40.0113 81.1012 40.5998 79.7436 41.0298C78.3861 41.4598 76.704 41.6786 74.7013 41.6786H74.6938Z" fill="white"/>
<path d="M99.2872 41.6563C97.4224 41.6563 95.6994 41.3168 94.118 40.6453C92.533 39.97 91.2687 38.8761 90.3213 37.3596C89.374 35.8431 88.9004 33.8362 88.9004 31.3427C88.9004 30.0564 89.0272 28.6946 89.2845 27.2573C89.5419 25.8201 89.9745 24.413 90.5899 23.0285C91.2015 21.6479 92.0295 20.3917 93.07 19.26C94.1106 18.1283 95.4047 17.2305 96.9599 16.5628C98.5114 15.8951 100.369 15.5631 102.524 15.5631C104.154 15.5631 105.665 15.8272 107.052 16.3515C108.443 16.8797 109.596 17.7548 110.509 18.9771C111.427 20.2031 111.983 21.8591 112.188 23.949L108.928 24.2319C108.697 22.5683 108.231 21.3234 107.529 20.4973C106.828 19.6712 106 19.128 105.038 18.8601C104.076 18.5923 103.106 18.4603 102.129 18.4603C100.078 18.4603 98.407 18.8978 97.1091 19.7693C95.8112 20.6407 94.8155 21.7535 94.118 23.104C93.4206 24.4545 92.9358 25.8465 92.6635 27.2837C92.3912 28.721 92.257 30.0036 92.257 31.1353C92.257 33.1459 92.6187 34.7039 93.3386 35.8129C94.0584 36.922 94.9982 37.6878 96.1581 38.1216C97.3143 38.5554 98.5226 38.7704 99.7795 38.7704C101.767 38.7704 103.39 38.2876 104.647 37.3219C105.903 36.3562 106.892 34.9151 107.604 32.9988L110.655 33.327C110.267 34.6322 109.745 35.7979 109.096 36.8239C108.443 37.8538 107.656 38.729 106.731 39.4495C105.806 40.1738 104.729 40.7207 103.494 41.098C102.26 41.4752 100.857 41.6638 99.2909 41.6638L99.2872 41.6563Z" fill="white"/>
<path d="M119.409 41.6561C118.446 41.6561 117.469 41.5053 116.474 41.2072C115.481 40.9092 114.598 40.4075 113.829 39.6983C113.061 38.9929 112.524 38.0196 112.222 36.7785C111.92 35.5374 111.976 33.9757 112.397 32.0895L115.985 16.2609H119.245L115.776 31.5727C115.34 33.4249 115.317 34.866 115.705 35.8958C116.093 36.9257 116.738 37.6386 117.637 38.0385C118.536 38.4384 119.532 38.6383 120.617 38.6383C122.497 38.6383 124.086 38.1894 125.391 37.2953C126.696 36.4013 127.752 35.2621 128.557 33.8814C129.363 32.5007 129.937 31.0786 130.28 29.6187L133.286 16.2646H136.546L130.981 40.9507H128.304L128.863 36.4051H128.606C128.061 37.3632 127.39 38.2384 126.592 39.0306C125.794 39.8228 124.805 40.4603 123.634 40.9394C122.463 41.4185 121.053 41.6561 119.409 41.6561Z" fill="white"/>
<path d="M133.838 8.41831L134.491 5.61548H146.227L145.575 8.41831H133.838ZM142.315 38.2876C143.542 38.2876 144.896 37.8273 146.38 36.9107C147.865 35.994 149.513 34.8359 151.329 33.4364L153.008 35.696C151.766 36.6692 150.513 37.5935 149.248 38.4649C147.984 39.3363 146.716 40.0455 145.452 40.5962C144.187 41.147 142.942 41.4224 141.715 41.4224C140.488 41.4224 139.473 41.1621 138.63 40.6453C137.787 40.1285 137.206 39.3099 136.896 38.197C136.587 37.0804 136.631 35.6394 137.034 33.8626L143.415 5.61925H146.697L140.271 33.9343C139.883 35.662 139.913 36.8201 140.365 37.4086C140.816 37.9971 141.469 38.2913 142.323 38.2913L142.315 38.2876Z" fill="white"/>
<path d="M151.496 50.3476L159.205 16.2646H161.86L161.323 20.7386H161.555C162.315 19.3428 163.404 18.1281 164.825 17.0983C166.246 16.0685 168.197 15.5554 170.681 15.5554C172.34 15.5554 173.862 15.8761 175.246 16.5211C176.626 17.1662 177.741 18.2413 178.587 19.7465C179.434 21.2554 179.855 23.2962 179.855 25.869C179.855 26.9667 179.729 28.2078 179.471 29.5922C179.214 30.9729 178.796 32.3724 178.214 33.7833C177.633 35.1979 176.834 36.4956 175.828 37.6801C174.817 38.8646 173.575 39.8228 172.102 40.5546C170.625 41.2864 168.872 41.6486 166.839 41.6486C165.72 41.6486 164.598 41.4901 163.475 41.177C162.349 40.8639 161.312 40.3132 160.365 39.5285C159.417 38.7439 158.664 37.6688 158.105 36.3032H157.918L154.752 50.3438H151.492L151.496 50.3476ZM166.727 38.7099C168.7 38.7099 170.323 38.2799 171.594 37.416C172.866 36.5522 173.858 35.4544 174.563 34.119C175.268 32.7836 175.772 31.403 176.066 29.9732C176.361 28.5435 176.51 27.2647 176.51 26.133C176.51 24.0431 176.171 22.4475 175.496 21.3384C174.821 20.2331 173.955 19.4749 172.9 19.0637C171.844 18.6563 170.74 18.4526 169.592 18.4526C167.746 18.4526 166.161 18.8675 164.84 19.7012C163.52 20.5349 162.446 21.6025 161.614 22.9039C160.782 24.2091 160.175 25.5973 159.787 27.0723C159.399 28.5473 159.205 29.9393 159.205 31.2407C159.205 32.8742 159.455 34.1869 159.951 35.1753C160.447 36.1636 161.092 36.9143 161.883 37.4236C162.673 37.9328 163.498 38.2761 164.352 38.4497C165.206 38.6232 165.996 38.7099 166.727 38.7099Z" fill="white"/>
<path d="M190.483 19.0412L187.13 33.9041C186.88 35.0509 186.854 35.9412 187.048 36.5787C187.242 37.2162 187.556 37.6576 187.992 37.9103C188.428 38.1631 188.902 38.2875 189.413 38.2875C190.297 38.2875 191.24 38.0763 192.244 37.65C193.247 37.2238 194.328 36.6504 195.492 35.9185C196.656 35.1867 197.898 34.3606 199.218 33.4326L200.803 35.6922C199.438 36.6504 198.08 37.567 196.738 38.4498C195.395 39.3287 194.067 40.0454 192.755 40.5924C191.442 41.1432 190.125 41.4186 188.809 41.4186C187.567 41.4186 186.504 41.1583 185.62 40.6415C184.736 40.1247 184.128 39.3061 183.804 38.1932C183.479 37.0766 183.509 35.6243 183.897 33.8362L187.179 19.0449H180.029L180.66 16.2647H187.832L190.371 8.4447H192.885L191.14 16.2647H202.41L201.78 19.0449H190.487L190.483 19.0412Z" fill="white"/>
<rect width="53" height="53" rx="15" fill="white"/>
<path d="M33.6775 11.5429L27.2109 18.0836L28.8819 19.7737L35.3485 13.233L33.6775 11.5429Z" fill="black"/>
<path d="M27.6131 22.875H25.25V32.125H27.6131V22.875Z" fill="black"/>
<path d="M23.9783 21.3514L17.5117 27.8921L19.1827 29.5822L25.6492 23.0415L23.9783 21.3514Z" fill="black"/>
<path d="M24.1451 19.3674H15V21.7576H24.1451V19.3674Z" fill="black"/>
<path d="M19.1827 11.5413L17.5117 13.2314L23.9783 19.7722L25.6492 18.0821L19.1827 11.5413Z" fill="black"/>
<path d="M27.6131 9H25.25V18.25H27.6131V9Z" fill="black"/>
<path d="M27.6131 36.75H25.25V46H27.6131V36.75Z" fill="black"/>
<path d="M27.6131 22.875H25.25V32.125H27.6131V22.875Z" fill="black"/>
<path d="M33.6795 25.418L27.2129 31.9587L28.8838 33.6489L35.3504 27.1081L33.6795 25.418Z" fill="black"/>
<path d="M37.8639 33.2423H28.7188V35.6325H37.8639V33.2423Z" fill="black"/>
<path d="M28.8819 35.2293L27.2109 36.9194L33.6775 43.4602L35.3485 41.7701L28.8819 35.2293Z" fill="black"/>
</svg>
